<?xml version="1.0" encoding="utf-8"?>
<!-- Generator: Adobe Illustrator 19.2.1, SVG Export Plug-In . SVG Version: 6.00 Build 0)  -->
<svg version="1.1" id="Layer_1" xmlns:x="ns_extend;" xmlns:i="ns_ai;" xmlns:graph="ns_graphs;"
	 xmlns="http://www.w3.org/2000/svg" xmlns:xlink="http://www.w3.org/1999/xlink" x="0px" y="0px" viewBox="0 0 77 14.4"
	 style="enable-background:new 0 0 77 14.4;" xml:space="preserve">
<style type="text/css">
	.st0{fill:#8BC34A;}
	.st1{fill:none;}
	.st2{fill:#0088A9;}
	.st3{font-family: 'Lemon', cursive;}
	.st4{font-size:9px;}
</style>
<metadata>
	<sfw  xmlns="ns_sfw;">
		<slices></slices>
		<sliceSourceBounds  bottomLeftOrigin="true" height="11.7" width="72.9" x="2" y="0.9"></sliceSourceBounds>
	</sfw>
</metadata>
<path class="st0" d="M2.7,5.6c0,0-0.1-2,2.5-2.6c0,0,0.5,2.7-2.2,2.8c0,0,0.7-1.1,1.2-1.5C4.2,4.3,3,5,2.7,5.6z"/>
<path class="st0" d="M6.2,2.4c0,0,1.5-1.4,3.6,0.3c0,0-1.8,2.1-3.5,0c0,0,1.3-0.1,1.9,0C8.1,2.8,6.8,2.3,6.2,2.4z"/>
<path class="st0" d="M10.8,3.2c0,0,2,0.3,2,3c0,0-2.7-0.2-2.2-2.8c0,0,0.9,1,1.2,1.5C11.7,5,11.3,3.7,10.8,3.2z"/>
<path class="st0" d="M13.1,7.4c0,0,1,1.8-1.1,3.4c0,0-1.6-2.3,0.8-3.5c0,0-0.2,1.3-0.5,1.9C12.3,9.2,13.1,8.1,13.1,7.4z"/>
<path class="st0" d="M11.3,11.7c0,0-0.8,1.9-3.4,1.3c0,0,0.8-2.7,3.2-1.5c0,0-1.2,0.7-1.8,0.8C9.3,12.3,10.7,12.2,11.3,11.7z"/>
<path class="st0" d="M6.7,13c0,0-2,0.6-3.1-1.8c0,0,2.5-1.1,3.2,1.6c0,0-1.3-0.5-1.7-0.9C5.1,11.9,6.1,12.9,6.7,13z"/>
<path class="st0" d="M2.9,10.3c0,0-1.7-1.2-0.5-3.6c0,0,2.4,1.3,0.8,3.5c0,0-0.4-1.3-0.4-1.9C2.8,8.3,2.6,9.7,2.9,10.3z"/>
<rect x="16.9" y="4.2" class="st1" width="49" height="9"/>
<text transform="matrix(0.9948 0 0 1 17.6401 10.9375)" class="st2 st3 st4">Reciclando</text>
</svg>
